<?xml version="1.0" encoding="UTF-8"?>
<svg id="Layer_1" data-name="Layer 1" xmlns="http://www.w3.org/2000/svg" viewBox="0 0 3000 3000">
  <defs>
    <style>
      .cls-1 {
        fill: #2a367f;
        stroke: #231f20;
        stroke-miterlimit: 10;
        stroke-width: 1.4px;
      }

      .cls-2 {
        fill: #fff;
      }
    </style>
  </defs>
  <path class="cls-1" d="M522.22,952.17v1172.29c308.91,126.58,617.81,253.17,926.72,379.75,24.26,9.93,51.45,9.93,75.72,0l934.01-380.1c-.35-390.76-.69-781.52-1.04-1172.27l-934.45-362.94c-23.4-9.09-49.36-9.04-72.72.12-309.41,121.05-618.83,242.1-928.24,363.15Z"/>
  <g>
    <polygon class="cls-2" points="839.73 1226.41 862.11 1226.41 862.11 1351.88 839.73 1351.88 839.73 1381.6 920.93 1381.6 920.93 1351.88 898.42 1351.88 898.42 1226.41 920.93 1226.41 920.93 1196.44 839.73 1196.44 839.73 1226.41"/>
    <path class="cls-2" d="M1021.77,1247.43c-7.96,0-15.25,1.66-21.89,4.97-6.63,3.32-11.98,7.88-16.04,13.68v-15.3h-34.07v130.82h34.2v-94.88c7.21-7.21,15.54-10.82,25-10.82,7.29,0,12.48,2.14,15.54,6.4,3.07,4.27,4.6,11.59,4.6,21.95v77.35h34.2v-85.93c0-32.17-13.85-48.25-41.53-48.25Z"/>
    <path class="cls-2" d="M1147.86,1186.87c-14.76,0-26.16,4.4-34.2,13.18-8.04,8.79-12.06,21.47-12.06,38.05v12.68h-14.3v26.24h14.3v104.58h34.2v-104.58h29.85v-26.24h-30.47v-13.31c0-17.41,6.34-26.11,19.03-26.11,5.06,0,10.45,1.16,16.17,3.48h2.61v-24.62c-6.14-1.49-10.94-2.42-14.43-2.8s-7.05-.56-10.69-.56Z"/>
    <path class="cls-2" d="M1238.64,1247.92c-18.32,0-33,6.18-44.02,18.53-11.03,12.35-16.54,28.97-16.54,49.87s5.35,38.09,16.04,50.11c10.69,12.02,25.53,18.03,44.52,18.03s33.7-5.99,44.39-17.97c10.69-11.98,16.04-28.7,16.04-50.18s-5.31-38.34-15.92-50.36c-10.61-12.02-25.45-18.03-44.52-18.03ZM1258.04,1348.9c-4.4,7.54-10.9,11.32-19.52,11.32s-15.01-3.73-19.4-11.19c-4.4-7.46-6.59-18.28-6.59-32.46s2.15-24.77,6.47-32.27c4.31-7.5,10.82-11.25,19.52-11.25s15.03,3.77,19.46,11.32c4.43,7.54,6.65,18.28,6.65,32.21s-2.2,24.79-6.59,32.33Z"/>
    <path class="cls-2" d="M1361,1269.44v-18.65h-34.32v130.82h34.32v-86.43c8.54-9.45,18.65-14.18,30.34-14.18,6.55,0,12.85,1.08,18.9,3.23h2.24v-33.2c-3.73-1.16-8.21-1.74-13.43-1.74-11.94,0-24.62,6.72-38.05,20.15Z"/>
    <path class="cls-2" d="M1586.19,1247.43c-8.62,0-16.56,1.89-23.81,5.66-7.25,3.77-13.29,9.22-18.09,16.35-5.89-14.67-17.95-22.01-36.19-22.01-8.21,0-15.81,1.7-22.82,5.1-7.01,3.4-12.46,7.92-16.35,13.55v-15.3h-34.07v130.82h34.2v-94.88c2.9-2.9,6.3-5.43,10.2-7.59,3.9-2.15,8.66-3.23,14.3-3.23,7.46,0,12.77,2.05,15.92,6.16,3.15,4.1,4.73,11.55,4.73,22.32v77.22h34.2v-85.8c0-3.56-.17-6.51-.5-8.83,7.21-7.38,15.5-11.07,24.87-11.07,7.71,0,13.08,2.38,16.1,7.15,3.03,4.77,4.54,11.88,4.54,21.33v77.22h34.2v-85.93c0-15.92-3.52-27.94-10.57-36.06-7.05-8.12-17.33-12.19-30.84-12.19Z"/>
    <path class="cls-2" d="M1753.13,1258.87c-9.33-7.38-24.56-11.07-45.7-11.07-14.18,0-28.73,2.2-43.65,6.59v25.87h2.74c13.68-5.14,26.2-7.71,37.56-7.71,19.48,0,29.22,6.96,29.22,20.89v3.61c-29.1.58-49.89,4.6-62.36,12.06-12.48,7.46-18.71,19.27-18.71,35.44,0,11.77,3.75,21.35,11.25,28.73,7.5,7.38,17.01,11.07,28.54,11.07,6.05,0,11.52-.54,16.41-1.62,4.89-1.08,9.18-2.65,12.87-4.73,3.69-2.07,7.65-5.3,11.88-9.7v13.31h33.95v-87.42c0-16.17-4.66-27.94-13.99-35.32ZM1733.42,1349.27c-4.15,3.73-8.39,6.57-12.75,8.52-4.35,1.95-9.39,2.92-15.11,2.92-13.51,0-20.27-6.26-20.27-18.78,0-8.62,3.5-14.78,10.51-18.47,7-3.69,19.54-6.07,37.62-7.15v32.95Z"/>
    <path class="cls-2" d="M1853.92,1357.35c-6.14,0-10.43-1.99-12.87-5.97-2.45-3.98-3.67-10.94-3.67-20.89v-53.47h32.58v-26.24h-32.95v-43.77h-33.95v43.77h-13.93v26.24h13.93v62.3c0,15.09,3.61,26.28,10.82,33.58,7.21,7.3,18.49,10.94,33.82,10.94,8.54,0,16.29-1.24,23.25-3.73v-25.99h-1.99c-4.64,2.16-9.66,3.23-15.05,3.23Z"/>
    <path class="cls-2" d="M1948.17,1247.8c-18.24,0-32.97,6.36-44.21,19.09-11.24,12.73-16.85,29.58-16.85,50.55s5.6,37.82,16.79,49.56c11.19,11.73,26.9,17.6,47.13,17.6,17.16,0,33.37-3.23,48.62-9.7v-24.87h-2.86c-5.22,2.98-11.73,5.45-19.52,7.4-7.79,1.95-15.01,2.92-21.64,2.92-11.28,0-19.82-3.15-25.62-9.45-5.8-6.3-9-15.96-9.58-28.97h82.32v-13.55c0-18.49-4.93-33.2-14.8-44.15-9.87-10.94-23.13-16.42-39.79-16.42ZM1920.44,1303.39c.5-9.45,3.13-17.04,7.9-22.76,4.77-5.72,11.21-8.58,19.34-8.58,7.63,0,13.6,2.82,17.91,8.46,4.31,5.64,6.47,13.27,6.47,22.88h-51.61Z"/>
    <polygon class="cls-2" points="2095.4 1313.95 2138.8 1250.78 2103.61 1250.78 2078.62 1289.71 2053.74 1250.78 2017.93 1250.78 2060.83 1314.45 2014.45 1381.6 2049.77 1381.6 2077.87 1338.83 2105.1 1381.6 2141.17 1381.6 2095.4 1313.95"/>
  </g>
  <g>
    <polygon class="cls-2" points="1201.67 1557.83 1201.67 1475.37 841.14 1475.37 841.14 1557.83 974.16 1557.83 974.16 1900.3 1068.65 1900.3 1068.65 1557.83 1201.67 1557.83"/>
    <path class="cls-2" d="M1390.66,1619.82c-22.07-12.43-47.55-18.66-76.44-18.66s-56.38,6.62-80.05,19.86c-23.68,13.24-42.43,31.4-56.28,54.47-13.84,23.08-20.77,49.26-20.77,78.55s7.02,55.58,21.07,78.85c14.04,23.28,33.4,41.44,58.08,54.47s52.86,19.56,84.56,19.56c24.47,0,46.95-4.21,67.41-12.64,20.46-8.43,37.92-21.07,52.36-37.92l-50.56-50.56c-8.83,10.04-19.06,17.56-30.7,22.57-11.64,5.02-24.68,7.52-39.12,7.52-15.65,0-29.19-3.31-40.63-9.93-11.44-6.62-20.27-16.04-26.48-28.29-2.07-4.07-3.79-8.42-5.17-13.04l209.51-.5c1.6-7.62,2.71-14.34,3.31-20.16.6-5.81.9-11.33.9-16.55,0-28.49-6.32-53.76-18.96-75.84-12.64-22.06-30-39.32-52.06-51.76ZM1277.2,1681.51c10.63-6.62,23.17-9.93,37.62-9.93,13.64,0,25.18,2.92,34.61,8.73,9.42,5.82,16.55,14.25,21.37,25.28,2.02,4.64,3.65,9.8,4.9,15.47l-127.73.36c1.24-4.22,2.76-8.19,4.56-11.92,5.81-12.04,14.04-21.37,24.68-27.99Z"/>
    <path class="cls-2" d="M1681.06,1816.94c-9.43,4.21-20.16,6.32-32.2,6.32-12.85,0-24.48-3.01-34.91-9.03-10.44-6.02-18.56-14.24-24.38-24.68-5.82-10.43-8.73-22.47-8.73-36.11s2.91-25.58,8.73-35.81c5.81-10.23,13.84-18.25,24.08-24.08,10.23-5.81,21.97-8.73,35.21-8.73,11.63,0,21.97,1.81,31,5.42s16.95,9.24,23.77,16.85l58.98-58.98c-14.85-15.65-31.81-27.39-50.86-35.21-19.06-7.82-40.03-11.74-62.9-11.74-30.5,0-57.99,6.62-82.46,19.86-24.48,13.24-43.84,31.4-58.08,54.47-14.25,23.08-21.37,49.26-21.37,78.55s7.02,54.98,21.07,78.25c14.04,23.28,33.3,41.53,57.78,54.77,24.47,13.24,51.76,19.86,81.86,19.86,23.67,0,45.14-4.12,64.4-12.34,19.26-8.22,36.51-20.36,51.76-36.41l-58.38-58.98c-6.83,7.63-14.95,13.54-24.38,17.75Z"/>
    <path class="cls-2" d="M2073.89,1655.03c-5.65-9.98-12.36-17.34-13.55-18.63-7.46-8.09-16.29-14.92-26.48-20.49-17.26-9.42-37.32-14.14-60.19-14.14s-42.34,4.72-59.59,14.14c-7.06,3.86-13.48,8.39-19.26,13.56v-166.14h-92.09v436.97h92.09v-166.72c0-10.03,2.2-18.96,6.62-26.78,4.41-7.82,10.43-13.84,18.06-18.06,7.62-4.21,16.45-6.32,26.48-6.32,14.45,0,26.38,4.72,35.81,14.14,0,0,3.86,3.88,6.78,8.55,7.26,11.66,7.36,27.1,7.37,28.46,1.1,63,4.52,100.78,22.73,127.59,21.71,28.13,41.66,42.35,121.07,39.14v-61.45c-23.24,5.27-36.63-4.63-42.19-8.25-11.92-12.84-10.28-28.07-12.54-117.71-.25-9.79,1.22-30.04-11.13-57.85Z"/>
  </g>
</svg>